<svg width="30" height="30" viewBox="0 0 30 30" fill="none" xmlns="http://www.w3.org/2000/svg">
<path d="M16.5899 12.012C15.7209 11.9171 14.8964 12.3939 14.5984 13.1635C14.5313 13.3369 14.5077 13.5244 14.4967 13.721C14.4884 13.8692 14.4863 14.046 14.4859 14.2542L14.4857 14.5461C14.4857 14.5491 14.4857 14.5522 14.4857 14.5553V19.7303C13.903 19.2187 13.1192 18.9053 12.2571 18.9053C10.4583 18.9053 9 20.2697 9 21.9527C9 23.6357 10.4583 25 12.2571 25C14.056 25 15.5142 23.6357 15.5142 21.9527V16.3139C15.5861 16.3497 15.6639 16.3861 15.7492 16.426L17.6058 17.2944C17.8926 17.4286 18.126 17.5378 18.3173 17.6158C18.5101 17.6944 18.6999 17.7586 18.8958 17.78C19.7647 17.8748 20.5893 17.398 20.8872 16.6284C20.9544 16.455 20.9779 16.2675 20.989 16.0709C20.9999 15.876 20.9999 15.6319 20.9999 15.3319L21 15.2787C21.0001 15.0556 21.0001 14.8811 20.9663 14.7157C20.8792 14.29 20.6277 13.9092 20.2596 13.6459C20.1166 13.5436 19.9498 13.4656 19.7364 13.366L17.8799 12.4975C17.593 12.3633 17.3596 12.2541 17.1684 12.1761C16.9756 12.0975 16.7858 12.0333 16.5899 12.012Z" fill="white"/>
<path fill-rule="evenodd" clip-rule="evenodd" d="M10.1495 1.01455e-05C10.1696 1.01455e-05 10.19 1.01455e-05 10.2107 1.01455e-05H19.7892C19.8097 1.01455e-05 19.8302 1.01455e-05 19.8503 1.01455e-05C20.1733 -7.35755e-05 20.4211 -0.000143365 20.6377 0.0219171C22.6277 0.224703 24.1509 1.77634 24.2433 3.65592C26.0696 4.17364 27.3481 5.82544 27.2588 7.68457C27.8444 7.9354 28.3629 8.28142 28.8065 8.76251C29.7124 9.7449 29.989 10.9471 29.9997 12.3497C30.0098 13.7055 29.769 15.4207 29.4687 17.5586L28.8596 21.8961C28.6249 23.5676 28.435 24.9204 28.1396 25.9797C27.8324 27.0823 27.3784 27.9964 26.5269 28.7044C25.6753 29.4123 24.661 29.7186 23.4693 29.8621C22.3244 30 20.8869 30 19.1111 30H10.8889C9.11298 30 7.67556 30 6.53067 29.8621C5.33895 29.7186 4.32461 29.4123 3.47304 28.7044C2.62148 27.9964 2.16766 27.0823 1.86026 25.9797C1.56495 24.9204 1.37501 23.5676 1.14032 21.8961L0.531217 17.5586C0.230968 15.4207 -0.00992797 13.7055 0.000314972 12.3497C0.0109253 10.9471 0.287533 9.7449 1.1934 8.76251C1.637 8.28142 2.15558 7.93539 2.7411 7.68457C2.65186 5.82549 3.93027 4.17372 5.75647 3.65596C5.84888 1.77636 7.37209 0.224703 9.36215 0.0219171C9.57869 -0.000143365 9.82641 -7.35755e-05 10.1495 1.01455e-05ZM7.99325 3.48838H22.0065C21.85 2.75767 21.211 2.18539 20.4024 2.103C20.3197 2.09457 20.2018 2.09303 19.7892 2.09303H10.2107C9.79794 2.09303 9.68008 2.09457 9.59736 2.103C8.7888 2.18539 8.14979 2.75767 7.99325 3.48838ZM4.97875 7.14061C6.36359 6.97671 8.12186 6.97673 10.2888 6.97675H19.7111C21.878 6.97673 23.6364 6.97671 25.0212 7.14061C24.8417 6.26615 24.031 5.58141 23.0267 5.58141H6.97324C5.96898 5.58141 5.15816 6.26615 4.97875 7.14061ZM5.08765 9.23815C3.87614 9.39995 3.26336 9.69503 2.85192 10.1412C2.44049 10.5874 2.21342 11.2031 2.20463 12.3647C2.19564 13.5561 2.41337 15.1252 2.7277 17.3636C2.7277 17.3636 2.7785 17.7253 2.81106 17.957C2.50664 15.765 3.17386 20.5407 2.81106 17.957L22.4892 23.7209C19.8243 22.7773 20.8443 23.1385 22.4892 23.7209C19.3537 22.6107 20.0467 22.8561 22.4892 23.7209L26.2296 24.485C26.3801 23.7096 26.515 22.7562 26.6845 21.5496L27.2723 17.3636C27.5866 15.1252 27.8043 13.5561 27.7953 12.3647C27.7865 11.2031 27.5594 10.5874 27.148 10.1412C26.7366 9.69503 26.1238 9.39995 24.9123 9.23815C23.6698 9.07223 22.0029 9.06978 19.6246 9.06978H10.3753C7.99701 9.06978 6.33016 9.07223 5.08765 9.23815ZM26.2296 24.485L22.4892 23.7209C20.1952 22.9087 20.9284 23.1683 22.4892 23.7209C20.2283 22.9204 20.9284 23.1683 22.4892 23.7209L2.81106 17.957C2.63024 16.6674 3.11547 20.1491 2.81106 17.957C3.00807 19.36 3.31553 21.5496 3.31553 21.5496C3.56241 23.3076 3.7359 24.5281 3.99125 25.444C4.23864 26.3315 4.52979 26.801 4.92513 27.1296C5.32046 27.4582 5.8491 27.6702 6.80816 27.7857C7.79813 27.905 9.09522 27.907 10.9632 27.907H19.0367C20.9047 27.907 22.2018 27.905 23.1918 27.7857C24.1509 27.6702 24.6795 27.4582 25.0748 27.1296C25.2456 26.9877 26.3101 24.8372 26.2296 24.485Z" fill="white"/>
</svg>
